# xmcd
#
# Track frame offsets:
# 150
# 13937
# 31204
# 43679
# 53329
# 62841
# 74109
# 90195
# 104987
# 115710
# 125414
# 139117
# 151417
# 163559
# 176874
# 194211
# 207138
#
# Disc length: 2912 seconds
#
# Revision: 3
# Processed by: cddbd v1.4PL0 Copyright (c) Steve Scherf et al.
# Submitted via: Axialis_AX_CDPlayer 2.6
#
DISCID=f70b5e11
DTITLE=Various Artist - The Best Of Country and Western 07 van 12
DYEAR=1900
DGENRE=
TTITLE0=A moment isn't very long - Willie Nelson
TTITLE1=Calypso - John Denver
TTITLE2=A poor man's roses - Patsy Cline
TTITLE3=Lonely street - Geroge Jones
TTITLE4=Y'all come - Loretta Lynn
TTITLE5=Louisiana man - Charlie Pride
TTITLE6=Johnny one time - Brenda Lee
TTITLE7=Rollin' back to Tennessee - The Buckaroos
TTITLE8=Act naturally - Johnny Davis
TTITLE9=Am I that easy to forget - Skeeter Davis
TTITLE10=Another place, another time - Jerry Lee Lewis
TTITLE11=Thanks a lot - Ernest Tubb
TTITLE12=Me and Bobby McGee - Kennie Rodgers
TTITLE13=D.I.V.O.R.C.E./ Dottie 'West
TTITLE14=Old dogs, children and watermelon wine - Tom T. Hall
TTITLE15=Dallas - Billie Joe Spears
TTITLE16=Letter to heaven - Dolly Parton
EXTD=
EXTT0=
EXTT1=
EXTT2=
EXTT3=
EXTT4=
EXTT5=
EXTT6=
EXTT7=
EXTT8=
EXTT9=
EXTT10=
EXTT11=
EXTT12=
EXTT13=
EXTT14=
EXTT15=
EXTT16=
PLAYORDER=
